<?xml version="1.0" encoding="utf-8"?>
<!-- Generator: Adobe Illustrator 21.0.2, SVG Export Plug-In . SVG Version: 6.00 Build 0)  -->
<svg version="1.1" id="Layer_1" xmlns="http://www.w3.org/2000/svg" xmlns:xlink="http://www.w3.org/1999/xlink" x="0px" y="0px"
	 viewBox="0 0 311 99.2" style="enable-background:new 0 0 311 99.2;" xml:space="preserve">
<style type="text/css">
	.st0{fill:url(#SVGID_1_);}
	.st1{fill:url(#SVGID_2_);}
	.st2{fill:url(#SVGID_3_);}
	.st3{fill:url(#SVGID_4_);}
	.st4{fill:url(#SVGID_5_);}
	.st5{fill:url(#SVGID_6_);}
	.st6{fill:url(#SVGID_7_);}
	.st7{fill:url(#SVGID_8_);}
	.st8{fill:url(#SVGID_9_);}
</style>
<g>
	<linearGradient id="SVGID_1_" gradientUnits="userSpaceOnUse" x1="0.584" y1="53.9573" x2="307.2514" y2="53.9573">
		<stop  offset="0" style="stop-color:#EB6852"/>
		<stop  offset="0.3232" style="stop-color:#B6B4DF"/>
		<stop  offset="0.676" style="stop-color:#A4C6D3"/>
		<stop  offset="1" style="stop-color:#9AB9AD"/>
	</linearGradient>
	<path class="st0" d="M27,58.4l5.8,5.2c-3.7,4.3-8.5,6.4-14.4,6.4C8.3,70,1.5,63.7,1.5,54.1c0-9.6,6.3-16.1,16.4-16.2
		c9.4-0.1,15.6,5.7,15.8,15l-21,5c1.2,2.7,3.5,4.3,6.5,4.3C22,62.2,24.7,60.9,27,58.4z M11.9,52.2l11.7-2.9
		c-0.8-2.8-2.7-4.1-5.2-4.1C14.6,45.2,12.2,47.7,11.9,52.2z"/>
	<linearGradient id="SVGID_2_" gradientUnits="userSpaceOnUse" x1="0.584" y1="48.3892" x2="307.2514" y2="48.3892">
		<stop  offset="0" style="stop-color:#EB6852"/>
		<stop  offset="0.3232" style="stop-color:#B6B4DF"/>
		<stop  offset="0.676" style="stop-color:#A4C6D3"/>
		<stop  offset="1" style="stop-color:#9AB9AD"/>
	</linearGradient>
	<path class="st1" d="M51.1,61.1c0.9,0,1.9-0.3,3-0.8l0.9,8.5c-2,0.8-4.1,1.3-6,1.3c-5.8,0-10.8-3.8-10.8-11.8V26.6h10.3v31.3
		C48.4,60.2,49.5,61.1,51.1,61.1z"/>
	<linearGradient id="SVGID_3_" gradientUnits="userSpaceOnUse" x1="0.584" y1="53.9573" x2="307.2514" y2="53.9573">
		<stop  offset="0" style="stop-color:#EB6852"/>
		<stop  offset="0.3232" style="stop-color:#B6B4DF"/>
		<stop  offset="0.676" style="stop-color:#A4C6D3"/>
		<stop  offset="1" style="stop-color:#9AB9AD"/>
	</linearGradient>
	<path class="st2" d="M81.7,58.4l5.8,5.2C83.8,67.9,79,70,73.1,70c-10.2,0-16.9-6.3-16.9-15.9c0-9.6,6.3-16.1,16.4-16.2
		c9.4-0.1,15.6,5.7,15.8,15l-21,5c1.2,2.7,3.5,4.3,6.5,4.3C76.6,62.2,79.3,60.9,81.7,58.4z M66.5,52.2l11.7-2.9
		c-0.8-2.8-2.7-4.1-5.2-4.1C69.3,45.2,66.9,47.7,66.5,52.2z"/>
	<linearGradient id="SVGID_4_" gradientUnits="userSpaceOnUse" x1="0.584" y1="53.7539" x2="307.2514" y2="53.7539">
		<stop  offset="0" style="stop-color:#EB6852"/>
		<stop  offset="0.3232" style="stop-color:#B6B4DF"/>
		<stop  offset="0.676" style="stop-color:#A4C6D3"/>
		<stop  offset="1" style="stop-color:#9AB9AD"/>
	</linearGradient>
	<path class="st3" d="M146.4,49.9v19.8h-10.3V52.8c0-3.6-2-5.7-5.2-5.7c-3.7,0.1-5.9,3-5.9,7.1v15.5h-10.3V52.8c0-3.6-2-5.7-5.2-5.7
		c-3.7,0.1-6,3-6,7.1v15.5H93.3V38.3h10.3v5.2c2.1-3.7,5.7-5.6,10.2-5.6c5.1,0,8.9,2.6,10.4,7c2-4.6,5.9-7,11-7
		C141.9,37.9,146.4,42.5,146.4,49.9z"/>
	<linearGradient id="SVGID_5_" gradientUnits="userSpaceOnUse" x1="0.584" y1="53.9573" x2="307.2514" y2="53.9573">
		<stop  offset="0" style="stop-color:#EB6852"/>
		<stop  offset="0.3232" style="stop-color:#B6B4DF"/>
		<stop  offset="0.676" style="stop-color:#A4C6D3"/>
		<stop  offset="1" style="stop-color:#9AB9AD"/>
	</linearGradient>
	<path class="st4" d="M176.4,58.4l5.8,5.2c-3.7,4.3-8.5,6.4-14.4,6.4c-10.2,0-16.9-6.3-16.9-15.9c0-9.6,6.3-16.1,16.4-16.2
		c9.4-0.1,15.6,5.7,15.8,15l-21,5c1.2,2.7,3.5,4.3,6.5,4.3C171.3,62.2,174.1,60.9,176.4,58.4z M161.2,52.2l11.7-2.9
		c-0.8-2.8-2.7-4.1-5.2-4.1C164,45.2,161.6,47.7,161.2,52.2z"/>
	<linearGradient id="SVGID_6_" gradientUnits="userSpaceOnUse" x1="0.584" y1="53.7539" x2="307.2514" y2="53.7539">
		<stop  offset="0" style="stop-color:#EB6852"/>
		<stop  offset="0.3232" style="stop-color:#B6B4DF"/>
		<stop  offset="0.676" style="stop-color:#A4C6D3"/>
		<stop  offset="1" style="stop-color:#9AB9AD"/>
	</linearGradient>
	<path class="st5" d="M220.1,49.9v19.8h-10.3V52.8c0-3.5-2.1-5.7-5.3-5.7c-3.5,0.1-5.7,2.4-6.1,6v16.6H188V38.3h10.3v5.1
		c2.2-3.6,5.8-5.5,10.4-5.5C215.5,37.9,220.1,42.5,220.1,49.9z"/>
	<linearGradient id="SVGID_7_" gradientUnits="userSpaceOnUse" x1="0.584" y1="50.5928" x2="307.2514" y2="50.5928">
		<stop  offset="0" style="stop-color:#EB6852"/>
		<stop  offset="0.3232" style="stop-color:#B6B4DF"/>
		<stop  offset="0.676" style="stop-color:#A4C6D3"/>
		<stop  offset="1" style="stop-color:#9AB9AD"/>
	</linearGradient>
	<path class="st6" d="M245.3,68c-2.3,1.3-5.4,2.1-8.4,2.1c-6.2,0-10.6-3.8-10.6-10.5V31.1h10.2v8.7h8.2v6.8h-8.2V58
		c0,2.6,1.2,3.8,3.1,3.8c1.1,0,2.3-0.3,3.7-1L245.3,68z"/>
	<linearGradient id="SVGID_8_" gradientUnits="userSpaceOnUse" x1="0.584" y1="53.9856" x2="307.2514" y2="53.9856">
		<stop  offset="0" style="stop-color:#EB6852"/>
		<stop  offset="0.3232" style="stop-color:#B6B4DF"/>
		<stop  offset="0.676" style="stop-color:#A4C6D3"/>
		<stop  offset="1" style="stop-color:#9AB9AD"/>
	</linearGradient>
	<path class="st7" d="M281.8,38.3v31.4h-10.3v-3.9c-2.1,2.8-5.3,4.3-9.2,4.3c-8.8,0-14.6-6.5-14.6-16.2c0-9.6,5.7-15.9,14.3-15.9
		c4-0.1,7.3,1.6,9.5,4.4v-4.1H281.8z M271.4,55.1v-2.1c-0.4-4.1-3-6.8-6.7-6.8c-4.1,0-6.8,3.2-6.8,7.8c0,4.6,2.7,7.8,6.8,7.8
		C268.5,61.9,271,59.2,271.4,55.1z"/>
	<linearGradient id="SVGID_9_" gradientUnits="userSpaceOnUse" x1="0.584" y1="48.3892" x2="307.2514" y2="48.3892">
		<stop  offset="0" style="stop-color:#EB6852"/>
		<stop  offset="0.3232" style="stop-color:#B6B4DF"/>
		<stop  offset="0.676" style="stop-color:#A4C6D3"/>
		<stop  offset="1" style="stop-color:#9AB9AD"/>
	</linearGradient>
	<path class="st8" d="M302.1,61.1c0.9,0,1.9-0.3,3-0.8l0.9,8.5c-2,0.8-4.1,1.3-6,1.3c-5.8,0-10.8-3.8-10.8-11.8V26.6h10.3v31.3
		C299.4,60.2,300.5,61.1,302.1,61.1z"/>
</g>
</svg>
