<svg xmlns="http://www.w3.org/2000/svg" xmlns:xlink="http://www.w3.org/1999/xlink" viewBox="0 0 197.63 184.23"><defs><style>.cls-1,.cls-2,.cls-3{fill-rule:evenodd;}.cls-1{fill:url(#New_Gradient_Swatch_1);}.cls-2{fill:url(#New_Gradient_Swatch_1-2);}.cls-3{fill:url(#New_Gradient_Swatch_1-3);}</style><linearGradient id="New_Gradient_Swatch_1" x1="223.26" y1="-124.67" x2="69.7" y2="136.65" gradientUnits="userSpaceOnUse"><stop offset="0" stop-color="#b3c9e9"/><stop offset="0.32" stop-color="#7ca3dc"/><stop offset="0.64" stop-color="#407cca"/><stop offset="0.72" stop-color="#3773c3"/><stop offset="0.85" stop-color="#2159af"/><stop offset="1" stop-color="#003594"/></linearGradient><linearGradient id="New_Gradient_Swatch_1-2" x1="-24.7" y1="103.51" x2="163.17" y2="164.84" xlink:href="#New_Gradient_Swatch_1"/><linearGradient id="New_Gradient_Swatch_1-3" x1="288.6" y1="235.74" x2="130.71" y2="143.5" xlink:href="#New_Gradient_Swatch_1"/></defs><title>logo</title><g id="Layer_2" data-name="Layer 2"><g id="Layer_1-2" data-name="Layer 1"><path class="cls-1" d="M21,101.12C34.47,77.66,50,49.46,64.58,27.31,74.26,12.6,85.27.16,96.35,0c18.56-.27,26,15.59,34,29.28,12.29,21,23,41.46,35.36,63.43-20.49-6.8-31.39-5.29-53.32,1.46C104,78.64,94.52,59.11,78.92,88.32L62.48,124.06C41.88,132.83,13.69,131.1,21,101.12Z"/><path class="cls-2" d="M21,100.8C8.1,120.61,1.54,135.54.24,148c-1.72,16.53,5.62,32.14,23.47,34.79,30.22,4.49,78.09-31.08,98.29-43.52,33.38-20.57,62.7-3.38,72.71,32.92,14.44-48.39-26.2-93.7-88-67.37L62.31,123.81C40,133.33,14,129.37,21,100.8Z"/><path class="cls-3" d="M194.71,172.24c-3.3,10.45-14.37,12.87-23.51,11.73-12.21-1.52-22.85-13.33-33.17-22-9.37-7.91-24-10.12-40.07-7.12,8-5.1,16-10.51,24-15.49C155.38,118.75,184.7,135.94,194.71,172.24Z"/></g></g></svg>